# xmcd
#
# Track frame offsets: 
#        150
#        13682
#        26339
#        35239
#        46923
#        59567
#        72243
#        81074
#        93730
#        106391
#
# Disc length: 1538 seconds
#
# Revision: 2
# Processed by: cddbd v1.5.2PL0 Copyright (c) Steve Scherf et al.
# Submitted via: ExactAudioCopy v1.3
#
DISCID=8306000a
DTITLE=Homer and Jethro - The Best Of_Hall Of Fame 2001
DYEAR=2002
DGENRE=Country
TTITLE0=I Feel That Old Age Creeping On
TTITLE1=Goodbye Old Booze
TTITLE2=Cielito Lindo
TTITLE3=It Bruised Her Somewhat
TTITLE4=Bill Bailey
TTITLE5=Poor Little Liza, Poor Girl
TTITLE6=Boll Weevil
TTITLE7=When It's Long Handle Time In Tennessee
TTITLE8=Ground Hog
TTITLE9=Blue Tail Fly
EXTD=YEAR: 2002
EXTT0=
EXTT1=
EXTT2=
EXTT3=
EXTT4=
EXTT5=
EXTT6=
EXTT7=
EXTT8=
EXTT9=
PLAYORDER=
